<svg xmlns="http://www.w3.org/2000/svg" xmlns:xlink="http://www.w3.org/1999/xlink" width="1500" zoomAndPan="magnify" viewBox="0 0 1125 1124.99995" height="1500" preserveAspectRatio="xMidYMid meet" version="1.2"><defs><clipPath id="96df79caeb"><path d="M 762.890625 598.074219 L 824.390625 598.074219 L 824.390625 659.574219 L 762.890625 659.574219 Z M 762.890625 598.074219 "/></clipPath><clipPath id="ba9d761731"><path d="M 817.65625 539.539062 L 894.90625 539.539062 L 894.90625 616.789062 L 817.65625 616.789062 Z M 817.65625 539.539062 "/></clipPath><clipPath id="0fe0f4b66e"><path d="M 826.289062 634.964844 L 868.289062 634.964844 L 868.289062 676.964844 L 826.289062 676.964844 Z M 826.289062 634.964844 "/></clipPath></defs><g id="591fcec3b3"><g clip-rule="nonzero" clip-path="url(#96df79caeb)"><path style=" stroke:none;fill-rule:nonzero;fill:#e6abae;fill-opacity:1;" d="M 793.640625 598.074219 C 793.640625 615.058594 779.871094 628.824219 762.890625 628.824219 C 779.871094 628.824219 793.640625 642.589844 793.640625 659.574219 C 793.640625 642.589844 807.40625 628.824219 824.390625 628.824219 C 807.40625 628.824219 793.640625 615.058594 793.640625 598.074219 Z M 793.640625 598.074219 "/></g><g style="fill:#ffd0cb;fill-opacity:1;"><g transform="translate(264.540823, 567.588534)"><path style="stroke:none" d="M 6.046875 -126.03125 C 9.140625 -125.90625 13.175781 -125.78125 18.15625 -125.65625 C 23.132812 -125.539062 28.117188 -125.484375 33.109375 -125.484375 C 38.804688 -125.484375 44.320312 -125.539062 49.65625 -125.65625 C 55 -125.78125 58.796875 -125.84375 61.046875 -125.84375 C 75.765625 -125.84375 86.769531 -123.234375 94.0625 -118.015625 C 101.363281 -112.796875 105.015625 -106.09375 105.015625 -97.90625 C 105.015625 -93.75 103.769531 -89.535156 101.28125 -85.265625 C 98.789062 -80.992188 94.929688 -77.195312 89.703125 -73.875 C 84.484375 -70.550781 77.722656 -68.117188 69.421875 -66.578125 L 69.421875 -66.21875 C 80.578125 -65.382812 89.414062 -63.363281 95.9375 -60.15625 C 102.46875 -56.957031 107.15625 -53.101562 110 -48.59375 C 112.851562 -44.082031 114.28125 -39.394531 114.28125 -34.53125 C 114.28125 -27.050781 112.320312 -20.757812 108.40625 -15.65625 C 104.488281 -10.5625 98.847656 -6.675781 91.484375 -4 C 84.128906 -1.332031 75.347656 0 65.140625 0 C 62.296875 0 58.203125 -0.0859375 52.859375 -0.265625 C 47.523438 -0.441406 41.0625 -0.53125 33.46875 -0.53125 C 28.238281 -0.53125 23.132812 -0.5 18.15625 -0.4375 C 13.175781 -0.382812 9.140625 -0.238281 6.046875 0 L 6.046875 -3.5625 C 9.847656 -3.800781 12.695312 -4.273438 14.59375 -4.984375 C 16.488281 -5.691406 17.765625 -7.113281 18.421875 -9.25 C 19.078125 -11.382812 19.40625 -14.59375 19.40625 -18.875 L 19.40625 -107.15625 C 19.40625 -111.539062 19.078125 -114.769531 18.421875 -116.84375 C 17.765625 -118.925781 16.457031 -120.351562 14.5 -121.125 C 12.539062 -121.894531 9.722656 -122.34375 6.046875 -122.46875 Z M 58.734375 -122.46875 C 54.109375 -122.46875 51.113281 -121.457031 49.75 -119.4375 C 48.382812 -117.414062 47.703125 -113.320312 47.703125 -107.15625 L 47.703125 -18.875 C 47.703125 -14.71875 48.023438 -11.570312 48.671875 -9.4375 C 49.328125 -7.300781 50.515625 -5.875 52.234375 -5.15625 C 53.960938 -4.445312 56.546875 -4.09375 59.984375 -4.09375 C 68.523438 -4.09375 74.785156 -6.789062 78.765625 -12.1875 C 82.742188 -17.59375 84.734375 -25.28125 84.734375 -35.25 C 84.734375 -44.382812 82.445312 -51.441406 77.875 -56.421875 C 73.300781 -61.410156 65.738281 -63.90625 55.1875 -63.90625 L 40.046875 -63.90625 C 40.046875 -63.90625 40.046875 -64.40625 40.046875 -65.40625 C 40.046875 -66.414062 40.046875 -66.921875 40.046875 -66.921875 L 55.359375 -66.921875 C 60.929688 -66.921875 65.203125 -68.253906 68.171875 -70.921875 C 71.140625 -73.597656 73.21875 -77.160156 74.40625 -81.609375 C 75.59375 -86.054688 76.1875 -90.832031 76.1875 -95.9375 C 76.1875 -104.71875 74.820312 -111.332031 72.09375 -115.78125 C 69.363281 -120.238281 64.910156 -122.46875 58.734375 -122.46875 Z M 58.734375 -122.46875 "/></g></g><g style="fill:#ffd0cb;fill-opacity:1;"><g transform="translate(384.154151, 567.588534)"><path style="stroke:none" d="M 50.203125 -94.515625 C 60.640625 -94.515625 68.820312 -91.425781 74.75 -85.25 C 80.6875 -79.082031 83.65625 -69 83.65625 -55 L 25.09375 -55 L 24.734375 -58.390625 L 61.234375 -58.390625 C 61.347656 -64.203125 60.988281 -69.566406 60.15625 -74.484375 C 59.332031 -79.410156 58.03125 -83.359375 56.25 -86.328125 C 54.46875 -89.296875 52.09375 -90.78125 49.125 -90.78125 C 44.96875 -90.78125 41.4375 -88.164062 38.53125 -82.9375 C 35.625 -77.71875 33.875 -69.054688 33.28125 -56.953125 L 33.8125 -55.890625 C 33.695312 -54.460938 33.609375 -52.976562 33.546875 -51.4375 C 33.492188 -49.894531 33.46875 -48.296875 33.46875 -46.640625 C 33.46875 -38.453125 34.625 -31.804688 36.9375 -26.703125 C 39.25 -21.597656 42.1875 -17.890625 45.75 -15.578125 C 49.3125 -13.265625 52.929688 -12.109375 56.609375 -12.109375 C 59.097656 -12.109375 61.675781 -12.492188 64.34375 -13.265625 C 67.019531 -14.035156 69.722656 -15.457031 72.453125 -17.53125 C 75.179688 -19.601562 77.726562 -22.539062 80.09375 -26.34375 L 83.296875 -25.28125 C 81.878906 -20.769531 79.625 -16.378906 76.53125 -12.109375 C 73.445312 -7.835938 69.53125 -4.335938 64.78125 -1.609375 C 60.039062 1.117188 54.347656 2.484375 47.703125 2.484375 C 39.628906 2.484375 32.507812 0.765625 26.34375 -2.671875 C 20.175781 -6.109375 15.34375 -11.328125 11.84375 -18.328125 C 8.34375 -25.335938 6.59375 -34.238281 6.59375 -45.03125 C 6.59375 -56.070312 8.457031 -65.269531 12.1875 -72.625 C 15.925781 -79.976562 21.085938 -85.460938 27.671875 -89.078125 C 34.265625 -92.703125 41.773438 -94.515625 50.203125 -94.515625 Z M 50.203125 -94.515625 "/></g></g><g style="fill:#ffd0cb;fill-opacity:1;"><g transform="translate(473.864138, 567.588534)"><path style="stroke:none" d="M 28.84375 1.25 C 23.5 1.25 19.046875 0.238281 15.484375 -1.78125 C 11.921875 -3.800781 9.304688 -6.5 7.640625 -9.875 C 5.984375 -13.257812 5.15625 -16.96875 5.15625 -21 C 5.15625 -26.101562 6.3125 -30.253906 8.625 -33.453125 C 10.945312 -36.660156 13.945312 -39.273438 17.625 -41.296875 C 21.300781 -43.316406 25.1875 -44.976562 29.28125 -46.28125 C 33.375 -47.582031 37.289062 -48.851562 41.03125 -50.09375 C 44.769531 -51.34375 47.796875 -52.828125 50.109375 -54.546875 C 52.421875 -56.273438 53.578125 -58.503906 53.578125 -61.234375 L 53.578125 -75.109375 C 53.578125 -78.203125 53.070312 -80.960938 52.0625 -83.390625 C 51.050781 -85.828125 49.507812 -87.695312 47.4375 -89 C 45.363281 -90.300781 42.664062 -90.953125 39.34375 -90.953125 C 36.96875 -90.953125 34.59375 -90.625 32.21875 -89.96875 C 29.84375 -89.320312 27.882812 -88.226562 26.34375 -86.6875 C 29.664062 -85.5 32.242188 -83.6875 34.078125 -81.25 C 35.921875 -78.820312 36.84375 -76.066406 36.84375 -72.984375 C 36.84375 -68.941406 35.445312 -65.734375 32.65625 -63.359375 C 29.875 -60.992188 26.582031 -59.8125 22.78125 -59.8125 C 18.507812 -59.8125 15.273438 -61.144531 13.078125 -63.8125 C 10.890625 -66.476562 9.796875 -69.710938 9.796875 -73.515625 C 9.796875 -76.953125 10.65625 -79.796875 12.375 -82.046875 C 14.09375 -84.304688 16.492188 -86.445312 19.578125 -88.46875 C 22.898438 -90.363281 26.90625 -91.84375 31.59375 -92.90625 C 36.28125 -93.976562 41.351562 -94.515625 46.8125 -94.515625 C 52.269531 -94.515625 57.191406 -93.953125 61.578125 -92.828125 C 65.972656 -91.703125 69.65625 -89.65625 72.625 -86.6875 C 75.351562 -83.957031 77.128906 -80.601562 77.953125 -76.625 C 78.785156 -72.65625 79.203125 -67.644531 79.203125 -61.59375 L 79.203125 -13.171875 C 79.203125 -10.203125 79.5 -8.15625 80.09375 -7.03125 C 80.6875 -5.90625 81.695312 -5.34375 83.125 -5.34375 C 84.195312 -5.34375 85.234375 -5.640625 86.234375 -6.234375 C 87.242188 -6.828125 88.34375 -7.535156 89.53125 -8.359375 L 91.3125 -5.34375 C 88.820312 -3.207031 85.941406 -1.570312 82.671875 -0.4375 C 79.410156 0.6875 75.765625 1.25 71.734375 1.25 C 67.335938 1.25 63.832031 0.628906 61.21875 -0.609375 C 58.613281 -1.859375 56.75 -3.550781 55.625 -5.6875 C 54.5 -7.832031 53.9375 -10.328125 53.9375 -13.171875 C 51.082031 -8.660156 47.640625 -5.128906 43.609375 -2.578125 C 39.578125 -0.0234375 34.65625 1.25 28.84375 1.25 Z M 41.46875 -10.140625 C 43.84375 -10.140625 46.007812 -10.703125 47.96875 -11.828125 C 49.925781 -12.960938 51.796875 -14.832031 53.578125 -17.4375 L 53.578125 -53.9375 C 52.503906 -52.15625 51.019531 -50.550781 49.125 -49.125 C 47.226562 -47.695312 45.210938 -46.242188 43.078125 -44.765625 C 40.941406 -43.285156 38.894531 -41.65625 36.9375 -39.875 C 34.976562 -38.09375 33.40625 -35.894531 32.21875 -33.28125 C 31.03125 -30.675781 30.4375 -27.535156 30.4375 -23.859375 C 30.4375 -19.222656 31.441406 -15.773438 33.453125 -13.515625 C 35.472656 -11.265625 38.144531 -10.140625 41.46875 -10.140625 Z M 41.46875 -10.140625 "/></g></g><g style="fill:#ffd0cb;fill-opacity:1;"><g transform="translate(566.066089, 567.588534)"><path style="stroke:none" d="M 92.921875 -93.984375 L 92.921875 -19.40625 C 92.921875 -14.0625 93.75 -10.113281 95.40625 -7.5625 C 97.070312 -5.007812 100.039062 -3.734375 104.3125 -3.734375 L 104.3125 0 C 100.632812 -0.351562 96.953125 -0.53125 93.265625 -0.53125 C 88.285156 -0.53125 83.660156 -0.351562 79.390625 0 C 75.117188 0.351562 71.082031 1.003906 67.28125 1.953125 L 67.28125 -14.0625 C 64.4375 -8.125 60.488281 -3.878906 55.4375 -1.328125 C 50.394531 1.210938 44.789062 2.484375 38.625 2.484375 C 33.644531 2.484375 29.609375 1.832031 26.515625 0.53125 C 23.429688 -0.769531 21 -2.429688 19.21875 -4.453125 C 17.207031 -6.703125 15.785156 -9.664062 14.953125 -13.34375 C 14.117188 -17.03125 13.703125 -21.78125 13.703125 -27.59375 L 13.703125 -72.625 C 13.703125 -77.96875 12.898438 -81.910156 11.296875 -84.453125 C 9.703125 -87.003906 6.707031 -88.28125 2.3125 -88.28125 L 2.3125 -92.03125 C 6.113281 -91.664062 9.789062 -91.484375 13.34375 -91.484375 C 18.332031 -91.484375 22.988281 -91.691406 27.3125 -92.109375 C 31.644531 -92.523438 35.65625 -93.148438 39.34375 -93.984375 L 39.34375 -20.296875 C 39.34375 -17.328125 39.609375 -14.710938 40.140625 -12.453125 C 40.671875 -10.203125 41.707031 -8.453125 43.25 -7.203125 C 44.789062 -5.960938 47.046875 -5.34375 50.015625 -5.34375 C 53.222656 -5.34375 56.101562 -6.234375 58.65625 -8.015625 C 61.207031 -9.796875 63.28125 -12.253906 64.875 -15.390625 C 66.476562 -18.535156 67.28125 -22.066406 67.28125 -25.984375 L 67.28125 -72.625 C 67.28125 -77.96875 66.476562 -81.910156 64.875 -84.453125 C 63.28125 -87.003906 60.285156 -88.28125 55.890625 -88.28125 L 55.890625 -92.03125 C 59.691406 -91.664062 63.367188 -91.484375 66.921875 -91.484375 C 71.910156 -91.484375 76.566406 -91.691406 80.890625 -92.109375 C 85.222656 -92.523438 89.234375 -93.148438 92.921875 -93.984375 Z M 92.921875 -93.984375 "/></g></g><g style="fill:#ffd0cb;fill-opacity:1;"><g transform="translate(673.931657, 567.588534)"><path style="stroke:none" d="M 40.40625 -121.21875 L 40.40625 -92.03125 L 61.40625 -92.03125 L 61.40625 -88.46875 L 40.40625 -88.46875 L 40.40625 -16.546875 C 40.40625 -12.992188 41.054688 -10.472656 42.359375 -8.984375 C 43.671875 -7.503906 45.628906 -6.765625 48.234375 -6.765625 C 50.367188 -6.765625 52.503906 -7.5625 54.640625 -9.15625 C 56.773438 -10.757812 58.675781 -13.519531 60.34375 -17.4375 L 63.375 -15.84375 C 61.46875 -10.5 58.585938 -6.109375 54.734375 -2.671875 C 50.878906 0.765625 45.628906 2.484375 38.984375 2.484375 C 35.066406 2.484375 31.625 1.976562 28.65625 0.96875 C 25.6875 -0.03125 23.195312 -1.539062 21.1875 -3.5625 C 18.570312 -6.164062 16.847656 -9.394531 16.015625 -13.25 C 15.191406 -17.113281 14.78125 -22.128906 14.78125 -28.296875 L 14.78125 -88.46875 L -0.171875 -88.46875 L -0.171875 -92.03125 L 14.78125 -92.03125 L 14.78125 -115.515625 C 19.757812 -115.515625 24.351562 -115.957031 28.5625 -116.84375 C 32.78125 -117.738281 36.726562 -119.195312 40.40625 -121.21875 Z M 40.40625 -121.21875 "/></g></g><g style="fill:#ffd0cb;fill-opacity:1;"><g transform="translate(736.586269, 567.588534)"><path style="stroke:none" d="M 91.3125 -92.03125 L 91.3125 -88.46875 C 89.0625 -87.875 86.925781 -86.476562 84.90625 -84.28125 C 82.882812 -82.082031 80.925781 -78.375 79.03125 -73.15625 L 53.9375 -2.671875 L 47.34375 9.796875 L 8.546875 -78.3125 C 6.523438 -82.945312 4.535156 -85.765625 2.578125 -86.765625 C 0.617188 -87.773438 -1.066406 -88.28125 -2.484375 -88.28125 L -2.484375 -92.03125 C 1.421875 -91.664062 5.476562 -91.394531 9.6875 -91.21875 C 13.90625 -91.039062 17.972656 -90.953125 21.890625 -90.953125 C 26.753906 -90.953125 31.203125 -91.070312 35.234375 -91.3125 C 39.273438 -91.550781 43.078125 -91.789062 46.640625 -92.03125 L 46.640625 -88.28125 C 44.265625 -88.28125 42.035156 -88.128906 39.953125 -87.828125 C 37.878906 -87.535156 36.457031 -86.707031 35.6875 -85.34375 C 34.914062 -83.976562 35.242188 -81.632812 36.671875 -78.3125 L 59.09375 -24.203125 L 57.5 -23.140625 L 70.671875 -59.984375 C 72.921875 -66.390625 73.867188 -71.640625 73.515625 -75.734375 C 73.160156 -79.828125 71.851562 -82.910156 69.59375 -84.984375 C 67.34375 -87.066406 64.257812 -88.226562 60.34375 -88.46875 L 60.34375 -92.03125 C 62.238281 -91.90625 64.191406 -91.8125 66.203125 -91.75 C 68.222656 -91.695312 70.242188 -91.640625 72.265625 -91.578125 C 74.285156 -91.515625 76.066406 -91.484375 77.609375 -91.484375 C 79.984375 -91.484375 82.472656 -91.539062 85.078125 -91.65625 C 87.691406 -91.78125 89.769531 -91.90625 91.3125 -92.03125 Z M 53.9375 -2.671875 L 47.171875 16.375 C 45.984375 19.34375 44.765625 21.863281 43.515625 23.9375 C 42.273438 26.019531 40.882812 27.710938 39.34375 29.015625 C 37.675781 30.441406 35.535156 31.539062 32.921875 32.3125 C 30.316406 33.082031 27.296875 33.46875 23.859375 33.46875 C 21.003906 33.46875 18.0625 32.988281 15.03125 32.03125 C 12.007812 31.082031 9.488281 29.539062 7.46875 27.40625 C 5.457031 25.269531 4.453125 22.539062 4.453125 19.21875 C 4.453125 15.539062 5.753906 12.601562 8.359375 10.40625 C 10.972656 8.21875 14.414062 7.125 18.6875 7.125 C 22.601562 7.125 25.804688 8.070312 28.296875 9.96875 C 30.796875 11.863281 32.046875 14.648438 32.046875 18.328125 C 32.046875 20.703125 31.300781 22.957031 29.8125 25.09375 C 28.332031 27.226562 26.109375 28.832031 23.140625 29.90625 C 23.734375 30.019531 24.441406 30.078125 25.265625 30.078125 C 26.097656 30.078125 26.753906 30.078125 27.234375 30.078125 C 30.796875 30.078125 33.941406 28.945312 36.671875 26.6875 C 39.398438 24.4375 41.65625 20.878906 43.4375 16.015625 L 49.65625 -2.3125 Z M 53.9375 -2.671875 "/></g></g><g style="fill:#f3d7d4;fill-opacity:1;"><g transform="translate(303.23477, 698.982688)"><path style="stroke:none" d="M 48.5625 1.078125 C 40.675781 1.078125 33.609375 -0.203125 27.359375 -2.765625 C 21.109375 -5.328125 16.113281 -9.117188 12.375 -14.140625 C 8.632812 -19.160156 6.660156 -25.207031 6.453125 -32.28125 L 34.421875 -32.28125 C 34.835938 -28.28125 36.222656 -25.226562 38.578125 -23.125 C 40.929688 -21.03125 44.003906 -19.984375 47.796875 -19.984375 C 51.691406 -19.984375 54.765625 -20.878906 57.015625 -22.671875 C 59.273438 -24.460938 60.40625 -26.945312 60.40625 -30.125 C 60.40625 -32.789062 59.507812 -34.992188 57.71875 -36.734375 C 55.925781 -38.472656 53.722656 -39.90625 51.109375 -41.03125 C 48.492188 -42.164062 44.78125 -43.445312 39.96875 -44.875 C 33 -47.03125 27.3125 -49.179688 22.90625 -51.328125 C 18.5 -53.484375 14.707031 -56.660156 11.53125 -60.859375 C 8.351562 -65.066406 6.765625 -70.550781 6.765625 -77.3125 C 6.765625 -87.351562 10.398438 -95.21875 17.671875 -100.90625 C 24.953125 -106.59375 34.429688 -109.4375 46.109375 -109.4375 C 57.992188 -109.4375 67.570312 -106.59375 74.84375 -100.90625 C 82.125 -95.21875 86.019531 -87.300781 86.53125 -77.15625 L 58.09375 -77.15625 C 57.894531 -80.644531 56.613281 -83.382812 54.25 -85.375 C 51.894531 -87.375 48.875 -88.375 45.1875 -88.375 C 42.007812 -88.375 39.445312 -87.53125 37.5 -85.84375 C 35.550781 -84.15625 34.578125 -81.722656 34.578125 -78.546875 C 34.578125 -75.054688 36.21875 -72.335938 39.5 -70.390625 C 42.78125 -68.441406 47.90625 -66.34375 54.875 -64.09375 C 61.84375 -61.738281 67.503906 -59.484375 71.859375 -57.328125 C 76.210938 -55.179688 79.976562 -52.054688 83.15625 -47.953125 C 86.332031 -43.859375 87.921875 -38.582031 87.921875 -32.125 C 87.921875 -25.976562 86.359375 -20.394531 83.234375 -15.375 C 80.109375 -10.351562 75.570312 -6.351562 69.625 -3.375 C 63.6875 -0.40625 56.664062 1.078125 48.5625 1.078125 Z M 48.5625 1.078125 "/></g></g><g style="fill:#f3d7d4;fill-opacity:1;"><g transform="translate(397.762159, 698.982688)"><path style="stroke:none" d="M 5.078125 -54.109375 C 5.078125 -64.765625 7.378906 -74.265625 11.984375 -82.609375 C 16.597656 -90.960938 23.03125 -97.46875 31.28125 -102.125 C 39.53125 -106.789062 48.878906 -109.125 59.328125 -109.125 C 72.140625 -109.125 83.101562 -105.742188 92.21875 -98.984375 C 101.34375 -92.222656 107.441406 -83 110.515625 -71.3125 L 81.609375 -71.3125 C 79.460938 -75.820312 76.414062 -79.253906 72.46875 -81.609375 C 68.519531 -83.972656 64.035156 -85.15625 59.015625 -85.15625 C 50.921875 -85.15625 44.363281 -82.335938 39.34375 -76.703125 C 34.320312 -71.066406 31.8125 -63.535156 31.8125 -54.109375 C 31.8125 -44.679688 34.320312 -37.148438 39.34375 -31.515625 C 44.363281 -25.878906 50.921875 -23.0625 59.015625 -23.0625 C 64.035156 -23.0625 68.519531 -24.238281 72.46875 -26.59375 C 76.414062 -28.945312 79.460938 -32.378906 81.609375 -36.890625 L 110.515625 -36.890625 C 107.441406 -25.203125 101.34375 -16.003906 92.21875 -9.296875 C 83.101562 -2.585938 72.140625 0.765625 59.328125 0.765625 C 48.878906 0.765625 39.53125 -1.5625 31.28125 -6.21875 C 23.03125 -10.882812 16.597656 -17.367188 11.984375 -25.671875 C 7.378906 -33.972656 5.078125 -43.453125 5.078125 -54.109375 Z M 5.078125 -54.109375 "/></g></g><g style="fill:#f3d7d4;fill-opacity:1;"><g transform="translate(514.883891, 698.982688)"><path style="stroke:none" d="M 76.703125 -19.0625 L 36.421875 -19.0625 L 29.96875 0 L 2.453125 0 L 41.5 -107.90625 L 71.9375 -107.90625 L 110.96875 0 L 83.15625 0 Z M 69.9375 -39.34375 L 56.5625 -78.84375 L 43.34375 -39.34375 Z M 69.9375 -39.34375 "/></g></g><g style="fill:#f3d7d4;fill-opacity:1;"><g transform="translate(628.163087, 698.982688)"><path style="stroke:none" d="M 106.0625 0 L 79.765625 0 L 35.8125 -66.546875 L 35.8125 0 L 9.53125 0 L 9.53125 -107.90625 L 35.8125 -107.90625 L 79.765625 -41.03125 L 79.765625 -107.90625 L 106.0625 -107.90625 Z M 106.0625 0 "/></g></g><g clip-rule="nonzero" clip-path="url(#ba9d761731)"><path style=" stroke:none;fill-rule:nonzero;fill:#f3d7d4;fill-opacity:1;" d="M 856.28125 539.539062 C 856.28125 560.871094 838.988281 578.164062 817.65625 578.164062 C 838.988281 578.164062 856.28125 595.457031 856.28125 616.789062 C 856.28125 595.457031 873.574219 578.164062 894.90625 578.164062 C 873.574219 578.164062 856.28125 560.871094 856.28125 539.539062 Z M 856.28125 539.539062 "/></g><g clip-rule="nonzero" clip-path="url(#0fe0f4b66e)"><path style=" stroke:none;fill-rule:nonzero;fill:#e6abae;fill-opacity:1;" d="M 847.289062 634.964844 C 847.289062 646.5625 837.886719 655.964844 826.289062 655.964844 C 837.886719 655.964844 847.289062 665.367188 847.289062 676.964844 C 847.289062 665.367188 856.6875 655.964844 868.289062 655.964844 C 856.6875 655.964844 847.289062 646.5625 847.289062 634.964844 Z M 847.289062 634.964844 "/></g></g></svg>